<svg width="516" height="101" viewBox="0 0 516 101" fill="none" xmlns="http://www.w3.org/2000/svg">
<path d="M35.4526 0L69.4873 17.6432L28.3621 15.0486L35.4526 0Z" fill="#5020B1"/>
<path d="M33.562 1.03784L0 70.0539V30.6162L33.562 1.03784Z" fill="#6166FB"/>
<path d="M16.0718 42.0324L29.3075 100.67L1.41797 71.3512L16.0718 42.0324Z" fill="#236ABB"/>
<path d="M71.3783 72.6485L31.1984 100.67L26.9441 81.4701L71.3783 72.6485Z" fill="#0F5A75"/>
<path d="M71.8509 70.0539L53.8882 74.2053L58.1425 51.8918L71.8509 70.0539Z" fill="#256E79"/>
<path d="M56.7243 51.8918L54.3608 64.3458L28.3621 52.4107L56.7243 51.8918Z" fill="#186E50"/>
<path d="M93.2271 91C87.2111 91 82.5391 89.4 79.3391 86.264C76.6511 83.576 75.1151 79.8 75.1151 75.64V44.088H82.9871V75.64C82.9871 80.568 86.5071 83.192 93.2271 83.192C99.9471 83.192 103.595 80.44 103.595 75.512V44.088H111.467V75.512C111.467 82.68 106.667 91 93.2271 91Z" fill="#186E50"/>
<path d="M153.065 44.088V52.024H125.801V69.432H143.977L142.441 77.368H125.801V83.064H153.065V91H117.865V83.064V77.368V69.432V52.024V48.056V44.088H153.065Z" fill="#0F5A75"/>
<path d="M193.156 66.616C196.548 68.664 198.468 71.736 198.468 75.32C198.468 81.848 192.388 91 178.948 91C166.596 91 160.516 83.32 159.556 76.984L167.3 75.512C167.428 77.368 169.54 83.192 178.948 83.192C188.612 83.192 190.596 76.984 190.596 75.32C190.596 73.464 186.948 71.416 178.948 71.416C160.836 71.416 159.428 62.456 159.428 59.704C159.428 53.24 165.508 44.088 178.948 44.088C191.3 44.088 197.38 51.768 198.34 58.04L190.596 59.576C190.468 57.72 188.356 51.96 178.948 51.96C169.348 51.96 167.3 58.168 167.3 59.704C167.3 61.304 170.372 63.608 178.948 63.608C185.092 63.608 189.828 64.632 193.156 66.616Z" fill="#236ABB"/>
<path d="M238.593 66.616C241.985 68.664 243.905 71.736 243.905 75.32C243.905 81.848 237.825 91 224.385 91C212.033 91 205.953 83.32 204.993 76.984L212.737 75.512C212.865 77.368 214.977 83.192 224.385 83.192C234.049 83.192 236.033 76.984 236.033 75.32C236.033 73.464 232.385 71.416 224.385 71.416C206.273 71.416 204.865 62.456 204.865 59.704C204.865 53.24 210.945 44.088 224.385 44.088C236.737 44.088 242.817 51.768 243.777 58.04L236.033 59.576C235.905 57.72 233.793 51.96 224.385 51.96C214.785 51.96 212.737 58.168 212.737 59.704C212.737 61.304 215.809 63.608 224.385 63.608C230.529 63.608 235.265 64.632 238.593 66.616Z" fill="#6166FB"/>
<path d="M284.671 78.456L290.367 84.152C286.079 88.376 280.255 91 273.791 91C260.799 91 250.303 80.504 250.303 67.576C250.303 54.584 260.799 44.088 273.791 44.088C280.255 44.088 286.143 46.712 290.367 51L284.671 56.696C281.855 53.88 278.015 52.152 273.791 52.152C265.279 52.152 258.367 59.064 258.367 67.576C258.367 76.024 265.279 82.936 273.791 82.936C278.015 82.936 281.855 81.208 284.671 78.456ZM277.439 67.576C277.439 65.464 275.775 63.8 273.727 63.8C271.679 63.8 269.951 65.464 269.951 67.576C269.951 69.624 271.679 71.288 273.727 71.288C275.775 71.288 277.439 69.624 277.439 67.576ZM320.225 44.088L343.649 91H296.737L320.225 44.088ZM320.225 60.088L308.385 83.832H332.065L320.225 60.088ZM383.906 66.616C387.298 68.664 389.218 71.736 389.218 75.32C389.218 81.848 383.138 91 369.698 91C357.346 91 351.266 83.32 350.306 76.984L358.05 75.512C358.178 77.368 360.29 83.192 369.698 83.192C379.362 83.192 381.346 76.984 381.346 75.32C381.346 73.464 377.698 71.416 369.698 71.416C351.586 71.416 350.178 62.456 350.178 59.704C350.178 53.24 356.258 44.088 369.698 44.088C382.05 44.088 388.13 51.768 389.09 58.04L381.346 59.576C381.218 57.72 379.106 51.96 369.698 51.96C360.098 51.96 358.05 58.168 358.05 59.704C358.05 61.304 361.122 63.608 369.698 63.608C375.842 63.608 380.578 64.632 383.906 66.616ZM429.343 66.616C432.735 68.664 434.655 71.736 434.655 75.32C434.655 81.848 428.575 91 415.135 91C402.783 91 396.703 83.32 395.743 76.984L403.487 75.512C403.615 77.368 405.727 83.192 415.135 83.192C424.799 83.192 426.783 76.984 426.783 75.32C426.783 73.464 423.135 71.416 415.135 71.416C397.023 71.416 395.615 62.456 395.615 59.704C395.615 53.24 401.695 44.088 415.135 44.088C427.487 44.088 433.567 51.768 434.527 58.04L426.783 59.576C426.655 57.72 424.543 51.96 415.135 51.96C405.535 51.96 403.487 58.168 403.487 59.704C403.487 61.304 406.559 63.608 415.135 63.608C421.279 63.608 426.015 64.632 429.343 66.616ZM464.477 44.088C477.405 44.088 487.901 54.584 487.901 67.576C487.901 80.504 477.405 91 464.477 91C451.549 91 440.989 80.504 440.989 67.576C440.989 54.584 451.549 44.088 464.477 44.088ZM479.901 67.576C479.901 59.064 472.989 52.152 464.477 52.152C455.965 52.152 449.053 59.064 449.053 67.576C449.053 76.088 455.965 83 464.477 83C472.989 83 479.901 76.088 479.901 67.576ZM468.253 67.576C468.253 65.464 466.525 63.8 464.477 63.8C462.429 63.8 460.701 65.464 460.701 67.576C460.701 69.624 462.429 71.288 464.477 71.288C466.525 71.288 468.253 69.624 468.253 67.576Z" fill="black"/>
</svg>
